<?xml version="1.0" encoding="UTF-8" standalone="no" ?>
<!DOCTYPE svg PUBLIC "-//W3C//DTD SVG 1.1//EN" "http://www.w3.org/Graphics/SVG/1.1/DTD/svg11.dtd">
<svg xmlns="http://www.w3.org/2000/svg" xmlns:xlink="http://www.w3.org/1999/xlink" version="1.1" width="500" height="500" viewBox="0 0 500 500" xml:space="preserve">
<desc>Created with Fabric.js 5.3.0</desc>
<defs>
</defs>
<g transform="matrix(1.7426193271 0 0 1.7426193271 250 250)" id="9ft4kZSApyM7jnsdwGZOp"  >
<path style="stroke: none; stroke-width: 1; stroke-dasharray: none; stroke-linecap: butt; stroke-dashoffset: 0; stroke-linejoin: miter; stroke-miterlimit: 4; fill: rgb(0,0,0); fill-rule: nonzero; opacity: 1;"  transform=" translate(-128.2411047185, -128)" d="M 105.57 0 L 110.27 0 Q 150.85 1.65 179.21 28.79 C 199.35 48.08 211.22 75.25 211.05 103.71 Q 210.84 140.19 187.13 169.54 C 186.9977637268102 169.70439975456173 187.0106021283247 169.94404991616554 187.16 170.1 Q 217.22 201.33 247.17 232.52 Q 252.38 237.95 251.53 244.04 Q 250.07 254.58 238.36 256 L 236.63 256 Q 231.48 255.07 227.04 250.47 Q 197.13 219.4 167.39 188.41 Q 167.09 188.09 166.72 188.33 Q 124.48 215.99 77.32 202.02 Q 58.11 196.32 42.06 182.92 C -5.22 143.43 -8.36 72.88 35.69 29.44 Q 63.92 1.59 105.57 0 Z M 184.11 103.36 C 184.11 61.20410504541554 149.93589495458448 27.03 107.78000000000002 27.03 C 65.62410504541555 27.03 31.44999999999999 61.204105045415524 31.44999999999999 103.35999999999999 C 31.45 145.51589495458447 65.62410504541552 179.69 107.77999999999999 179.69 C 149.93589495458446 179.69000000000003 184.11 145.5158949545845 184.11 103.36000000000003 Z" stroke-linecap="round" />
</g>
</svg>